<svg id="Capa_1" enable-background="new 0 0 511.539 511.539" height="512" viewBox="0 0 511.539 511.539" width="512" xmlns="http://www.w3.org/2000/svg"><g><path d="m511.078 443.594c-3.952 32.354-26.269 57.449-58.382 65.649-8.215 2.097-11.072 2.127-197.576 2.07-180.327-.054-189.589-.148-196.618-1.998-27.271-7.173-48.986-27.798-56.336-55.228-2.088-7.792-2.122-10.898-2.159-197.919-.037-186.078.005-190.17 2.051-198.167 7.238-28.28 29.648-49.797 58.552-56.215 8.31-1.846 371.962-1.556 381.111-1.559 65.386-.016 69.818 73.246 69.818 73.246z" fill="#ff6a2d"/><path id="path4163" d="m328.447 413.303c23.001-3.138 41.025-12.357 57.935-29.632 12.232-12.497 19.89-26.024 24.894-43.976 2.079-7.458 2.253-11.089 2.634-54.878.288-33.049.048-48.528-.813-52.436-1.247-5.664-4.783-10.924-8.818-13.117-1.242-.675-9.196-1.535-17.677-1.911-14.211-.631-15.801-.908-20.286-3.537-7.115-4.17-9.074-8.672-9.094-20.896-.037-23.357-9.757-45.041-28.962-64.611-13.682-13.943-28.945-23.38-46.365-28.668-4.17-1.266-13.508-1.697-44.784-2.066-49.075-.58-59.968.426-76.675 7.081-30.801 12.269-52.933 38.125-61.006 71.273-1.516 6.226-1.811 16.204-2.169 73.522-.449 71.808.046 82.352 4.533 96.582 3.707 11.757 7.447 18.962 15.153 29.188 14.679 19.481 36.678 33.55 58.672 37.523 10.468 1.89 139.603 2.363 152.828.559z" fill="#fff"/><g fill="#ff6a2d"><path id="path4168_00000078746453272420424620000001056019722813609150_" d="m192.728 216.177c-11.759-3.241-16.153-20.112-7.51-28.837 5.524-5.577 7.051-5.789 41.626-5.789 31.04 0 32.083.068 36.643 2.371 6.589 3.329 9.452 8.022 9.452 15.494 0 6.749-2.689 11.478-8.686 15.278-3.22 2.041-5.145 2.168-35.557 2.346-18.78.11-33.74-.249-35.968-.863z"/><path id="path4168_00000100358541773662541870000010737768421856403634_" d="m195.285 330.177c-15.788-2.761-22.007-21.817-8.046-30.542 8.923-5.577 12.156-4.084 68.008-4.084 50.141 0 54.622-.451 61.988 1.852 9.301 3.483 12.472 8.541 12.472 16.013 0 6.749-2.49 12.218-10.508 15.278-5.202 2.041-11.834 2.168-60.962 2.346-30.335.11-59.353-.249-62.952-.863z"/></g></g></svg>