<svg id="Capa_1" enable-background="new 0 0 512 512" height="512" viewBox="0 0 512 512" width="512" xmlns="http://www.w3.org/2000/svg"><g clip-rule="evenodd" fill-rule="evenodd"><path d="m0 0h512v512h-512z" fill="#00f"/><path d="m344.595 306.261 68.436-38.831-68.436 116.484zm-61.397 34.833 47.808 54.249h-143.442zm-115.783-65.688v108.507l-71.735-122.069 71.716 13.562zm0-69.667-68.455 38.831 68.446-116.484v77.653zm61.387-34.833-47.798-54.249h143.441zm115.783 65.688v-108.507l71.725 122.069-71.716-13.562zm0 60v-51.479l68.06 12.87-68.051 38.609zm-8.514 14.495v77.219l-45.364-51.479zm-152.764 77.006 58.004-98.721 86.997 16.461zm-7.378-168.71 58.004 65.808-58.004 98.721zm-8.524-3.979v51.479l-68.041-12.87zm8.524-14.495v-77.219l45.364 51.479zm94.76 21.714-86.997-16.461 46.332-26.275.028-.018 98.641-55.966zm65.382 69.99-57.995-65.808 57.995-98.721zm-94.685-11.752-58.455-66.315 87.683 16.581 58.456 66.325-87.683-16.581v-.01zm187.517-24.438c.005-.074.01-.148.01-.222 0-.788-.128-1.618-.564-2.299 0 0-84.292-143.463-84.328-143.525-.35-.595-.83-1.03-1.381-1.431-.649-.441-1.483-.665-2.265-.665h-168.901c-.656.068-1.401.201-1.955.582-.631.374-1.154.882-1.541 1.514 0 0-84.326 143.521-84.328 143.525-.428.728-.65 1.622-.554 2.465.047.598.236 1.216.554 1.726 0 0 84.205 143.316 84.328 143.525.062.105.126.208.197.307.102.142.213.277.332.405.414.447.945.849 1.52 1.061.5.184 1.015.287 1.551.323h168.778c.786 0 1.579-.256 2.256-.646.42-.242.799-.625 1.1-1.002.112-.14.228-.288.31-.448 0 0 84.268-143.412 84.291-143.46.034-.073.518-.703.59-1.735z" fill="#fff"/></g></svg>