<svg id="Capa_1" enable-background="new 0 0 512 512" height="512" viewBox="0 0 512 512" width="512" xmlns="http://www.w3.org/2000/svg"><g><path d="m396.576 512h-281.152c-63.747 0-115.424-51.677-115.424-115.425v-281.15c0-63.747 51.677-115.425 115.424-115.425h281.151c63.748 0 115.425 51.678 115.425 115.425v281.151c0 63.747-51.677 115.424-115.424 115.424z" fill="#06c755"/><g><g><g><path d="m426.649 231.879c0-76.383-76.575-138.527-170.702-138.527-94.118 0-170.701 62.144-170.701 138.527 0 68.478 60.728 125.827 142.761 136.669 5.558 1.201 13.126 3.666 15.039 8.418 1.721 4.314 1.127 11.075.553 15.435 0 0-2.003 12.045-2.437 14.613-.745 4.313-3.431 16.878 14.786 9.203 18.22-7.677 98.305-57.886 134.119-99.106h-.008c24.738-27.131 36.59-54.663 36.59-85.232z" fill="#fff"/></g><g fill="#06c755"><path d="m369.861 275.985h-47.894-.064c-1.8 0-3.259-1.459-3.259-3.259v-.052-.005-74.365-.005-.07c0-1.8 1.459-3.259 3.259-3.259h.064 47.894c1.793 0 3.26 1.466 3.26 3.259v12.106c0 1.8-1.46 3.26-3.26 3.26h-32.593v12.571h32.593c1.793 0 3.26 1.467 3.26 3.26v12.106c0 1.8-1.46 3.26-3.26 3.26h-32.593v12.571h32.593c1.793 0 3.26 1.467 3.26 3.259v12.106c0 1.798-1.46 3.257-3.26 3.257z"/><path d="m192.463 275.985c1.8 0 3.259-1.459 3.259-3.259v-12.106c0-1.792-1.467-3.259-3.259-3.259h-32.593v-59.133c0-1.793-1.467-3.259-3.259-3.259h-12.106c-1.8 0-3.259 1.459-3.259 3.259v74.441.005.052c0 1.8 1.459 3.259 3.259 3.259h.064z"/><path d="m221.333 194.968h-12.106c-1.8 0-3.259 1.46-3.259 3.259v74.498c0 1.8 1.459 3.259 3.259 3.259h12.106c1.8 0 3.259-1.459 3.259-3.259v-74.498c.001-1.8-1.458-3.259-3.259-3.259z"/><path d="m303.747 194.968h-12.106c-1.8 0-3.259 1.46-3.259 3.259v44.248s-34.066-46.006-34.085-46.031c-.653-.882-1.652-1.476-2.766-1.476h-12.039c-1.8 0-3.259 1.46-3.259 3.259v74.498c0 1.8 1.459 3.259 3.259 3.259h12.106c1.8 0 3.259-1.459 3.259-3.259v-44.234s34.119 46.077 34.128 46.089c.632.854 1.653 1.404 2.722 1.404h12.04c1.8 0 3.259-1.459 3.259-3.259v-74.498c.001-1.8-1.459-3.259-3.259-3.259z"/></g></g></g></g></svg>