<svg id="Capa_1" enable-background="new 0 0 512 512" height="512" viewBox="0 0 512 512" width="512" xmlns="http://www.w3.org/2000/svg"><g fill="#0066c5"><path id="Path_2525" d="m486.879 446.34c4.428.044 8.054-3.51 8.098-7.938.002-.18-.002-.361-.013-.541 0-6.014-3.628-8.887-11.072-8.887h-12.028v31.485h4.524v-13.725h5.56l.127.167 8.626 13.558h4.838l-9.281-14.032zm-5.231-3.153h-5.246v-10.644h6.648c3.435 0 7.35.561 7.35 5.058 0 5.172-3.962 5.586-8.78 5.586z"/><path id="Path_2520" d="m368.876 406.883h-64.146v-100.456c0-23.955-.428-54.792-33.363-54.792-33.41 0-38.521 26.1-38.521 53.048v102.193h-64.146v-206.578h61.581v28.231h.862c12.557-21.469 35.904-34.292 60.759-33.37 65.015 0 77.003 42.764 77.003 98.398zm-272.556-234.823c-20.559.004-37.228-16.66-37.232-37.218-.004-20.559 16.66-37.228 37.218-37.232 20.559-.004 37.228 16.66 37.232 37.218.004 20.559-16.659 37.229-37.218 37.232zm32.073 234.824h-64.213v-206.586h64.213zm272.463-368.843h-368.91c-17.435-.197-31.733 13.769-31.946 31.204v370.44c.206 17.444 14.502 31.424 31.946 31.238h368.91c17.479.219 31.831-13.76 32.073-31.238v-370.466c-.249-17.47-14.603-31.435-32.073-31.205z"/><path id="Path_2526" d="m482.195 414.949c-16.303.157-29.393 13.5-29.236 29.803s13.5 29.392 29.804 29.236c16.303-.157 29.393-13.5 29.236-29.803-.155-16.082-13.154-29.081-29.236-29.235h-.568zm.675 55.647c-14.294.238-26.75-11.144-26.988-25.438s11.157-26.075 25.451-26.313c14.295-.238 26.075 11.157 26.313 25.451v.434c.299 13.983-10.793 25.563-24.776 25.866z"/></g></svg>