<svg id="Capa_1" enable-background="new 0 0 512 512" height="512" viewBox="0 0 512 512" width="512" xmlns="http://www.w3.org/2000/svg"><g id="PRIMARY_-_GHOST"><path d="m475.674 377.193c-79.286-38.381-91.923-97.64-92.486-102.035-.68-5.324-1.452-9.51 4.422-14.926 5.664-5.233 30.794-20.786 37.766-25.653 11.525-8.058 16.6-16.103 12.859-25.993-2.616-6.842-8.987-9.419-15.698-9.419-2.117.007-4.227.243-6.292.706-12.663 2.747-24.959 9.092-32.076 10.805-.855.22-1.733.339-2.616.353-3.794 0-5.232-1.688-4.866-6.253.89-13.84 2.773-40.853.589-66.087-2.996-34.718-14.193-51.92-27.471-67.134-6.423-7.378-36.249-39.074-93.807-39.074s-87.345 31.696-93.728 38.983c-13.317 15.214-24.502 32.416-27.471 67.134-2.185 25.234-.222 52.234.589 66.087.262 4.343-1.073 6.253-4.866 6.253-.883-.015-1.761-.134-2.616-.353-7.103-1.714-19.4-8.058-32.063-10.805-2.065-.463-4.175-.7-6.292-.706-6.737 0-13.081 2.616-15.698 9.419-3.741 9.89 1.308 17.935 12.872 25.993 6.972 4.866 32.102 20.407 37.766 25.653 5.861 5.416 5.102 9.602 4.422 14.926-.562 4.461-13.212 63.72-92.486 102.035-4.644 2.25-12.545 7.012 1.387 14.704 21.872 12.087 36.432 10.792 47.747 18.078 9.602 6.188 3.924 19.531 10.91 24.345 8.581 5.926 33.946-.419 66.715 10.4 27.471 9.052 44.163 34.627 92.878 34.627s65.891-25.692 92.878-34.627c32.704-10.818 58.121-4.474 66.715-10.4 6.972-4.814 1.308-18.157 10.91-24.345 11.315-7.286 25.862-5.991 47.747-18.078 13.905-7.602 6.004-12.363 1.36-14.613z" fill="#fff"/><path d="m510.169 372.68c-3.558-9.68-10.334-14.861-18.052-19.151-1.452-.85-2.786-1.531-3.924-2.054-2.302-1.19-4.657-2.342-6.999-3.558-24.057-12.754-42.842-28.844-55.871-47.917-3.7-5.369-6.909-11.061-9.589-17.006-1.112-3.179-1.06-4.984-.262-6.632.791-1.27 1.838-2.361 3.074-3.205 4.134-2.734 8.398-5.507 11.289-7.378 5.154-3.336 9.236-5.978 11.865-7.849 9.876-6.907 16.783-14.246 21.1-22.448 6.094-11.466 6.901-25.016 2.211-37.125-6.541-17.215-22.801-27.903-42.502-27.903-4.155-.004-8.299.435-12.362 1.308-1.086.236-2.172.484-3.231.759.183-11.773-.078-24.201-1.125-36.432-3.715-42.999-18.772-65.538-34.469-83.512-10.052-11.263-21.893-20.792-35.045-28.203-23.821-13.605-50.834-20.512-80.281-20.512s-56.329 6.907-80.176 20.512c-13.185 7.414-25.049 16.962-35.111 28.256-15.698 17.974-30.754 40.552-34.47 83.512-1.047 12.231-1.308 24.724-1.138 36.432-1.06-.275-2.132-.523-3.218-.759-4.062-.874-8.207-1.312-12.362-1.308-19.714 0-36 10.688-42.515 27.903-4.712 12.114-3.924 25.678 2.159 37.164 4.33 8.202 11.237 15.541 21.113 22.448 2.616 1.831 6.711 4.474 11.865 7.849 2.786 1.805 6.855 4.448 10.844 7.09 1.396.902 2.582 2.093 3.48 3.493.837 1.714.863 3.558-.379 6.959-2.643 5.82-5.8 11.393-9.432 16.653-12.741 18.641-30.977 34.443-54.262 47.093-12.336 6.541-25.156 10.91-30.571 25.627-4.081 11.106-1.413 23.743 8.961 34.391 3.807 3.974 8.223 7.317 13.081 9.903 10.109 5.556 20.859 9.856 32.01 12.807 2.301.594 4.486 1.571 6.462 2.891 3.78 3.31 3.244 8.294 8.28 15.593 2.528 3.773 5.741 7.038 9.471 9.628 10.57 7.299 22.448 7.757 35.032 8.241 11.368.432 24.253.929 38.97 5.782 6.096 2.015 12.427 5.913 19.766 10.465 17.621 10.832 41.743 25.653 82.112 25.653s64.661-14.9 82.413-25.77c7.286-4.474 13.579-8.333 19.504-10.295 14.717-4.866 27.602-5.35 38.97-5.782 12.584-.484 24.462-.942 35.032-8.241 4.418-3.081 8.099-7.101 10.779-11.773 3.623-6.161 3.532-10.465 6.933-13.474 1.854-1.257 3.906-2.195 6.07-2.773 11.304-2.96 22.2-7.3 32.442-12.924 5.162-2.769 9.808-6.407 13.736-10.753l.131-.157c9.735-10.416 12.181-22.687 8.191-33.518zm-35.882 19.282c-21.885 12.087-36.432 10.792-47.747 18.078-9.615 6.188-3.924 19.531-10.91 24.345-8.581 5.926-33.946-.419-66.715 10.4-27.026 8.935-44.268 34.626-92.878 34.626-48.611 0-65.446-25.64-92.917-34.692-32.704-10.818-58.121-4.474-66.715-10.4-6.972-4.814-1.308-18.157-10.91-24.345-11.328-7.286-25.875-5.991-47.747-18.013-13.932-7.692-6.03-12.453-1.387-14.703 79.273-38.381 91.923-97.64 92.486-102.035.68-5.324 1.439-9.51-4.421-14.926-5.664-5.233-30.794-20.786-37.766-25.653-11.538-8.058-16.613-16.103-12.872-25.993 2.616-6.842 9-9.419 15.698-9.419 2.117.007 4.227.243 6.292.706 12.663 2.747 24.959 9.092 32.063 10.805.855.219 1.733.338 2.616.353 3.794 0 5.128-1.91 4.866-6.253-.811-13.853-2.773-40.853-.589-66.087 2.996-34.718 14.18-51.92 27.471-67.134 6.384-7.312 36.379-39.009 93.742-39.009 57.362 0 87.436 31.566 93.82 38.852 13.304 15.214 24.501 32.416 27.471 67.134 2.185 25.234.301 52.247-.589 66.087-.301 4.565 1.073 6.253 4.866 6.253.883-.014 1.761-.133 2.616-.353 7.116-1.714 19.413-8.058 32.076-10.805 2.065-.463 4.175-.7 6.292-.706 6.737 0 13.081 2.616 15.698 9.419 3.741 9.89-1.308 17.935-12.859 25.993-6.972 4.866-32.102 20.407-37.766 25.653-5.874 5.416-5.102 9.602-4.422 14.926.562 4.461 13.199 63.72 92.486 102.035 4.682 2.342 12.583 7.103-1.349 14.861z"/></g></svg>