<svg id="Capa_1" enable-background="new 0 0 512 512" height="512" viewBox="0 0 512 512" width="512" xmlns="http://www.w3.org/2000/svg"><path d="m216.601 279.411c-6.911-2.165-14.217-3.422-21.833-3.422-40.798 0-73.993 33.195-73.993 73.996 0 28.41 16.118 53.096 39.67 65.491 10.269 5.404 21.935 8.501 34.323 8.501 39.858 0 72.371-31.705 73.851-71.208l.142-352.769h88.023c0 7.631.736 15.088 2.079 22.335 6.209 33.539 26.115 62.312 53.695 80.293 19.205 12.523 42.104 19.832 66.689 19.832v19.61 68.413c-45.642 0-87.939-14.602-122.463-39.382v178.883c0 89.337-72.679 162.015-162.016 162.015-34.524 0-66.534-10.888-92.85-29.362-41.781-29.333-69.166-77.839-69.166-132.653 0-89.337 72.679-162.019 162.016-162.019 7.414 0 14.681.61 21.833 1.583z"/></svg>