<svg id="Capa_1" enable-background="new 0 0 512 512" height="512" viewBox="0 0 512 512" width="512" xmlns="http://www.w3.org/2000/svg"><path id="Logo_1_" d="m459.592 151.55c.307 4.505.307 9.032.307 13.578 0 138.813-105.677 298.885-298.885 298.885v-.082c-57.08.077-112.975-16.276-161.014-47.103 8.299.993 16.648 1.499 25.006 1.516 47.31.048 93.26-15.822 130.458-45.056-44.942-.844-84.379-30.158-98.14-72.95 15.741 3.032 31.967 2.415 47.432-1.802-49.014-9.901-84.262-52.97-84.275-102.973 0-.451 0-.901 0-1.331 14.608 8.143 30.96 12.653 47.678 13.148-46.164-30.827-60.405-92.23-32.524-140.228 53.34 65.625 132.033 105.518 216.494 109.753-8.467-36.48 3.108-74.711 30.389-100.367 42.302-39.782 108.844-37.74 148.626 4.562 23.524-4.639 46.083-13.262 66.703-25.498-7.841 24.326-24.254 44.974-46.182 58.102 20.825-2.461 41.162-8.032 60.334-16.527-14.102 21.091-31.849 39.503-52.407 54.373z" fill="#1d9bf0"/></svg>