<svg id="Capa_1" enable-background="new 0 0 512 512" height="512" viewBox="0 0 512 512" width="512" xmlns="http://www.w3.org/2000/svg"><g><path d="m512 460.8c0 28.277-22.925 51.2-51.2 51.2h-409.6c-28.275 0-51.2-22.923-51.2-51.2v-409.6c0-28.277 22.925-51.2 51.2-51.2h409.6c28.275 0 51.2 22.923 51.2 51.2z" fill="#1ab7ea"/><g><path d="m430.82 170.027c-1.65 36.013-26.8 85.32-75.46 147.915-50.305 65.363-92.87 98.058-127.675 98.058-21.575 0-39.825-19.897-54.735-59.718-9.955-36.5-19.9-72.997-29.86-109.5-11.075-39.797-22.945-59.72-35.65-59.72-2.77 0-12.455 5.825-29.04 17.423l-17.4-22.417c18.26-16.04 36.27-32.08 53.99-48.145 24.355-21.035 42.65-32.105 54.835-33.222 28.785-2.768 46.51 16.912 53.16 59.037 7.19 45.455 12.17 73.723 14.96 84.785 8.31 37.715 17.445 56.552 27.415 56.552 7.735 0 19.375-12.23 34.89-36.705 15.485-24.455 23.785-43.065 24.905-55.858 2.215-21.11-6.09-31.688-24.905-31.688-8.86 0-17.995 2.038-27.39 6.065 18.19-59.55 52.93-88.473 104.205-86.822 38.02 1.116 55.95 25.768 53.755 73.96z" fill="#fff"/></g></g></svg>