<svg id="Capa_1" enable-background="new 0 0 512 512" height="512" viewBox="0 0 512 512" width="512" xmlns="http://www.w3.org/2000/svg"><g><path d="m77.778 101.216c-4.448 0-8.032 1.641-9.913 4.696-1.947 3.155-2.066 6.845 0 10.956l50.086 86.608c.08.168.08.371 0 .522l-78.26 138.259c-2.047 4.078-1.947 8.323 0 11.478 1.879 3.038 4.944 5.217 9.391 5.217h74.086c11.043 0 16.05-7.795 19.826-14.608 0 0 76.838-135.598 79.825-140.868-.302-.486-50.608-88.695-50.608-88.695-3.675-6.545-9.541-13.565-20.869-13.565z" fill="#005a5f"/><path d="m387.968 0c-11.026 0-15.809 6.948-19.77 14.064 0 0-159.081 282.114-164.317 291.378.265.503 104.924 192.495 104.924 192.495 3.659 6.545 9.315 14.064 20.626 14.064h73.759c4.447 0 7.921-1.678 9.801-4.716 1.964-3.155 1.913-7.317-.145-11.412l-104.107-190.197c-.094-.151-.094-.335 0-.486l163.495-289.078c2.047-4.078 2.098-8.24.145-11.395-1.874-3.038-5.364-4.716-9.812-4.716z" fill="#cfdc00"/></g></svg>