<?xml version="1.0" encoding="UTF-8"?>
<!-- Generator: Adobe Illustrator 25.4.1, SVG Export Plug-In . SVG Version: 6.00 Build 0)  -->
<svg xmlns="http://www.w3.org/2000/svg" xmlns:xlink="http://www.w3.org/1999/xlink" version="1.1" id="Capa_1" x="0px" y="0px" viewBox="0 0 512 512" style="enable-background:new 0 0 512 512;" xml:space="preserve" width="512" height="512">
<g>
	<path style="fill:#1F1F1A;" d="M128.068,214.148c6.885,22.828,15.219,44.24,24.278,64.895c15.581,36.993,26.09,56.56,40.617,80.838   c17.755,28.988,37.356,61.996,69.605,83.375c23.553,15.581,52.212,23.553,79.751,23.553c38.805,0,72.142-17.031,93.553-36.993   c21.017-19.567,48.226-57.285,48.226-130.876c0-25.365,11.233-47.139,19.567-64.532c0-0.362,0.362-1.087,1.087-2.536   c3.261-7.247,7.247-16.668,7.247-26.09c0-6.885-1.812-14.857-6.522-21.741c-7.247-12.32-20.292-16.668-32.283-16.668   c-27.901,0-47.139,19.567-56.923,39.53l-3.261,6.522c-3.986-5.798-7.972-11.958-11.233-17.393   c-10.146-17.755-15.944-29.713-21.017-44.965c-3.986-11.958-7.247-25.727-9.421-36.993c-6.16-35.544-16.306-47.139-33.007-51.487   c-12.32-3.261-26.814-0.725-37.356,6.16c-7.214-16.306-19.534-23.553-35.873-23.553c-23.191,0-44.24,15.219-44.24,40.979   c0,3.261,0.362,6.522,0.725,10.508c-2.899-0.725-6.16-1.087-9.421-1.087c-25.003,0-43.516,17.393-43.516,40.979   c0,5.435,0.725,11.595,2.536,18.842c-2.174-0.362-4.348-0.362-6.522-0.362c-12.32,0.725-23.553,5.435-31.558,15.219   C125.169,179.691,121.908,194.185,128.068,214.148z"/>
	<path style="fill:#FFE450;" d="M148.722,207.626c-3.261-10.508-2.899-18.48,1.087-23.553c3.986-4.711,9.421-6.885,15.944-7.247   c11.233-0.362,15.581,7.609,22.104,28.264c3.986,13.045,11.958,31.92,16.668,42.429c6.16,12.682,14.857,29.713,18.842,35.544   c3.261,5.073,6.16,6.522,9.421,6.522c5.798,0,10.146-3.261,10.146-9.059c0-3.261-3.261-8.697-5.073-11.958   c-3.261-6.16-10.146-18.48-14.857-28.988c-5.073-11.595-10.871-26.09-15.581-39.167c-2.899-7.609-6.16-18.48-9.421-29.351   c-5.073-16.668-7.609-26.814-7.609-34.457c0-11.595,8.697-19.205,21.741-19.205c9.421,0,15.581,4.711,19.567,21.741   c3.261,15.581,9.059,40.979,17.393,60.909c5.435,13.045,13.407,30.471,18.118,39.167c2.899,5.073,6.16,9.421,6.16,11.233   c0,2.536-4.711,6.522-8.697,11.958c-2.536,3.261-3.624,5.435-3.624,7.972c0,2.174,1.449,4.348,3.624,7.247   c2.174,2.899,4.348,5.798,6.885,5.798c1.812,0,2.899-0.725,3.986-2.174c11.233-14.132,23.553-23.915,37.718-31.92   c16.668-9.421,33.732-14.132,47.139-17.031c6.522-1.449,8.334-2.899,8.334-6.522c0-4.348-3.261-6.885-7.609-7.247   c-3.261-0.362-6.16,0-11.233,0.362c-3.624,0.362-5.435-1.449-7.609-6.16c-6.522-13.77-19.205-36.993-26.814-66.706   c-3.261-12.682-6.16-26.09-7.972-43.516c-1.087-7.972,0.362-10.871,4.348-14.494c5.073-4.348,14.132-6.16,21.017-4.348   c8.334,2.174,12.682,8.697,17.031,34.094c2.174,11.958,5.798,27.177,10.146,40.254c5.435,16.668,12.32,30.471,22.828,48.951   c5.798,10.146,13.045,20.654,20.654,30.833c-1.449,4.348-3.986,7.247-12.32,14.132c-8.334,6.885-16.668,14.132-24.278,27.539   c-5.435,9.784-7.972,20.654-7.972,27.901c0,6.885,1.449,8.334,5.798,8.334c7.609,0,13.77-1.449,14.132-4.711   c1.812-13.045,3.986-21.379,11.233-31.195c4.348-5.435,11.958-12.32,18.118-17.755c11.595-9.421,15.581-14.857,19.567-28.264   c1.812-6.16,3.986-11.958,6.885-17.393c6.885-12.682,19.205-27.177,38.443-27.177c6.16,0,11.233,1.812,14.494,6.885   c1.812,2.899,2.536,6.885,2.536,9.784c0,6.522-4.711,15.581-6.885,19.93c-7.972,17.031-21.017,43.153-21.017,73.229   c0,65.619-23.191,98.264-41.341,114.932c-17.755,16.668-45.69,31.195-78.664,31.195c-23.553,0-47.864-6.885-67.793-19.93   c-27.901-18.48-45.327-47.501-63.083-76.49c-14.132-23.553-23.915-42.066-39.167-77.939   C163.612,250.021,155.607,229.729,148.722,207.626z"/>
	<path style="fill:#FFE450;" d="M241.914,86.171c0-13.769,12.682-19.205,23.191-19.205c11.233,0,15.219,5.435,18.118,17.031   c2.536,9.421,3.624,18.118,4.711,28.264c1.449,10.146,6.522,33.37,7.972,39.167c5.435,19.93,16.306,43.516,29.351,71.779   c-7.609,2.536-17.755,6.885-24.64,10.508c-8.697,4.711-10.508,4.711-14.132-2.174c-7.609-14.132-13.045-24.64-17.755-36.993   c-3.986-10.146-7.972-21.741-11.233-35.181c-5.435-22.828-6.16-29.351-10.508-39.892C244.45,108.637,241.914,95.23,241.914,86.171z   "/>
	<path style="fill:#1F1F1A;" d="M112.125,328.883c-7.675,4.744-48.358,26.057-57.549,29.45c-6.555,2.438-13.671,1.845-17.854-10.541   c-5.139-15.318,2.075-18.941,12.353-22.927c9.092-3.525,46.81-17.162,55.572-19.534c6.16-1.647,10.442,0.428,13.407,7.84   C121.315,321.306,119.075,324.567,112.125,328.883L112.125,328.883z"/>
	<path style="fill:#1F1F1A;" d="M78.59,242.543c-10.937,0.296-56.363-1.647-66.739-2.668C2.825,238.986-0.831,235,0.157,221.922   c1.054-14.033,6.522-14.889,15.384-14.033c10.278,0.988,57.878,8.729,65.455,11.068c7.84,2.438,8.927,5.995,7.972,12.847   C87.748,240.699,83.729,242.379,78.59,242.543L78.59,242.543z"/>
	<path style="fill:#1F1F1A;" d="M84.223,150.571c-12.518-3.953-49.676-26.452-59.36-32.25c-8.762-5.271-9.882-10.014-3.788-21.577   c5.402-10.212,11.398-11.991,20.292-7.379c10.311,5.369,46.711,33.699,53.662,39.299c6.72,5.402,5.798,8.202,2.273,15.153   C93.776,150.769,90.482,152.548,84.223,150.571L84.223,150.571z"/>
</g>















</svg>
