<svg xmlns:xlink="http://www.w3.org/1999/xlink" xmlns="http://www.w3.org/2000/svg" viewBox="0 0 320 96.12040201822917" preserveAspectRatio="xMidYMid meet" class="css-1cs2450" id="dabacdda" width="320"  height="96.12040201822917" ><defs id="SvgjsDefs21880"><linearGradient id="SvgjsLinearGradient21885"><stop id="SvgjsStop21886" stop-color="#2d388a" offset="0"></stop><stop id="SvgjsStop21887" stop-color="#00aeef" offset="1"></stop></linearGradient><linearGradient id="SvgjsLinearGradient21885"><stop id="SvgjsStop21886" stop-color="#2d388a" offset="0"></stop><stop id="SvgjsStop21887" stop-color="#00aeef" offset="1"></stop></linearGradient><linearGradient id="SvgjsLinearGradient21885"><stop id="SvgjsStop21886" stop-color="#2d388a" offset="0"></stop><stop id="SvgjsStop21887" stop-color="#00aeef" offset="1"></stop></linearGradient><linearGradient id="SvgjsLinearGradient21885"><stop id="SvgjsStop21886" stop-color="#2d388a" offset="0"></stop><stop id="SvgjsStop21887" stop-color="#00aeef" offset="1"></stop></linearGradient><linearGradient id="SvgjsLinearGradient21885"><stop id="SvgjsStop21886" stop-color="#2d388a" offset="0"></stop><stop id="SvgjsStop21887" stop-color="#00aeef" offset="1"></stop></linearGradient><linearGradient id="SvgjsLinearGradient21885"><stop id="SvgjsStop21886" stop-color="#2d388a" offset="0"></stop><stop id="SvgjsStop21887" stop-color="#00aeef" offset="1"></stop></linearGradient><linearGradient id="SvgjsLinearGradient21885"><stop id="SvgjsStop21886" stop-color="#2d388a" offset="0"></stop><stop id="SvgjsStop21887" stop-color="#00aeef" offset="1"></stop></linearGradient><linearGradient id="SvgjsLinearGradient21885"><stop id="SvgjsStop21886" stop-color="#2d388a" offset="0"></stop><stop id="SvgjsStop21887" stop-color="#00aeef" offset="1"></stop></linearGradient><linearGradient id="SvgjsLinearGradient21885"><stop id="SvgjsStop21886" stop-color="#2d388a" offset="0"></stop><stop id="SvgjsStop21887" stop-color="#00aeef" offset="1"></stop></linearGradient><linearGradient id="SvgjsLinearGradient21885"><stop id="SvgjsStop21886" stop-color="#2d388a" offset="0"></stop><stop id="SvgjsStop21887" stop-color="#00aeef" offset="1"></stop></linearGradient></defs><g id="SvgjsG21881" featurekey="symbolFeature-0" transform="matrix(1.1111111111111112,0,0,1.1111111111111112,-5.555555555555555,-7.495320638020834)" fill="url(&quot;#SvgjsLinearGradient21885&quot;)"><polygon xmlns="http://www.w3.org/2000/svg" points="38.3181152,93.2531738 64.9382935,93.2536621 95,75.618103 95,60.5276489 " fill="url(&quot;#SvgjsLinearGradient21885&quot;)"></polygon><path xmlns="http://www.w3.org/2000/svg" d="M35.4447632,24.9294434V92.484375l58.5039673-33.7774658L35.4447632,24.9294434z M49.8583984,49.8959961  l15.2617188,8.8110352l-15.2617188,8.8095703V49.8959961z" fill="url(&quot;#SvgjsLinearGradient21885&quot;)"></path><polygon xmlns="http://www.w3.org/2000/svg" points="79.8696899,32.7814941 49.5643311,15.5639648 36.4959106,23.1086426 93.1793823,55.8353271 " fill="url(&quot;#SvgjsLinearGradient21885&quot;)"></polygon><polygon xmlns="http://www.w3.org/2000/svg" points="20.2736206,84.9384155 33.3422852,92.4837036 33.3422852,27.0325928 20.0314331,50.0864258 " fill="url(&quot;#SvgjsLinearGradient21885&quot;)"></polygon><polygon xmlns="http://www.w3.org/2000/svg" points="64.838501,6.7457886 51.675293,14.3452759 77.7923584,29.1832275 " fill="url(&quot;#SvgjsLinearGradient21885&quot;)"></polygon><polygon xmlns="http://www.w3.org/2000/svg" points="5,76.1201782 18.1630859,83.7199097 17.9543457,53.6838379 " fill="url(&quot;#SvgjsLinearGradient21885&quot;)"></polygon><polygon xmlns="http://www.w3.org/2000/svg" points="95,93.2541504 95,78.0545044 69.0911255,93.2537231 " fill="url(&quot;#SvgjsLinearGradient21885&quot;)"></polygon><polygon xmlns="http://www.w3.org/2000/svg" points="51.8583984,53.3603516 51.8583984,64.0537109 61.1201172,58.7070312 " fill="url(&quot;#SvgjsLinearGradient21885&quot;)"></polygon></g><g id="SvgjsG21882" featurekey="nameFeature-0" transform="matrix(0.8674155078581736,0,0,0.8674155078581736,117.22427136753211,25.660404598456346)" fill="#137DC5"><path d="M3.2 12 l4.2 0 l0 25.32 l-1.44 0 l0 -23.88 l-1.32 0 l0 25.12 l4.04 0 l0 -26.56 l1.44 0 l0 28 l-6.92 0 l0 -28 z M35.71 40 c-2.44 0 -4.76 -0.64 -6.96 -1.92 c-4.4 -2.52 -7.12 -7.16 -7.12 -12.12 c0 -2.48 0.64 -4.8 1.92 -7 c2.52 -4.32 7.24 -7.04 12.16 -7.04 c2.44 0 4.8 0.64 7 1.88 c4.4 2.56 7.04 7.32 7.04 12.16 c0 2.44 -0.64 4.72 -1.88 6.92 c-2.56 4.4 -7.2 7.12 -12.16 7.12 z M35.71 13.32 c-2.28 0 -4.4 0.56 -6.32 1.68 c-3.88 2.24 -6.28 6.36 -6.28 10.96 c0 2.28 0.56 4.4 1.68 6.32 c2.24 3.88 6.32 6.28 10.92 6.28 c2.28 0 4.4 -0.56 6.36 -1.68 c3.88 -2.24 6.28 -6.32 6.28 -10.92 c0 -2.28 -0.56 -4.4 -1.68 -6.36 c-2.24 -3.88 -6.48 -6.28 -10.96 -6.28 z M35.71 37.28 c-2 0 -3.88 -0.52 -5.68 -1.52 c-3.56 -2.04 -5.76 -5.76 -5.76 -9.8 c0 -2.04 0.52 -3.92 1.52 -5.68 c2.04 -3.52 5.64 -5.6 9.92 -5.6 c2.16 0 4.12 0.48 5.84 1.44 c3.44 1.92 5.44 5.52 5.44 9.84 c0 2.04 -0.48 3.92 -1.44 5.64 c-1.96 3.48 -5.8 5.68 -9.84 5.68 z M35.71 16.08 c-1.8 0 -3.44 0.44 -4.96 1.32 c-3.08 1.76 -4.96 4.92 -4.96 8.56 c0 1.76 0.44 3.4 1.36 4.92 c1.76 3.08 4.88 5 8.56 5 c1.8 0 3.44 -0.44 4.96 -1.36 c3 -1.76 4.92 -5.04 4.92 -8.56 c0 -1.8 -0.44 -3.48 -1.32 -5 c-1.76 -3.04 -5.08 -4.88 -8.56 -4.88 z M35.71 34.68 c-1.56 0 -3.04 -0.4 -4.36 -1.16 c-2.68 -1.56 -4.4 -4.52 -4.4 -7.56 c0 -1.56 0.4 -3.04 1.2 -4.4 c1.56 -2.72 4.32 -4.28 7.56 -4.28 c1.56 0 3 0.4 4.32 1.16 c2.68 1.56 4.24 4.28 4.24 7.52 c0 1.6 -0.36 3.04 -1.08 4.36 c-1.48 2.64 -4.32 4.36 -7.48 4.36 z M35.71 18.72 c-1.28 0 -2.48 0.32 -3.6 0.96 c-2.24 1.32 -3.68 3.68 -3.68 6.28 c0 1.28 0.32 2.48 0.96 3.56 c1.28 2.24 3.6 3.6 6.32 3.6 c1.32 0 2.56 -0.32 3.64 -0.96 c2.2 -1.28 3.52 -3.64 3.52 -6.2 c0 -1.32 -0.32 -2.52 -0.96 -3.64 c-1.28 -2.24 -3.64 -3.6 -6.2 -3.6 z M67.78 17.2 l9.56 0 l0 -3.8 l-17 0 l0 1.24 l15.64 0 l0 1.44 l-17.08 0 l0 -4.12 l19.88 0 l0 6.68 l-9.56 0 l0 18.72 l-1.44 0 l0 -20.16 z M65.1 18.64 l-6.2 0 l0 -1.44 l7.64 0 l0 21.32 l4 0 l0 -18.64 l1.44 0 l0 20.12 l-6.88 0 l0 -21.36 z M99.81 40 c-2.48 0 -4.8 -0.64 -6.92 -1.92 c-4.32 -2.52 -7.04 -7.28 -7.04 -12.04 c0 -2.48 0.64 -4.84 1.92 -7.04 c2.56 -4.44 6.96 -6.96 12.04 -6.96 c3.48 0 6.84 1.32 9.4 3.68 c0.08 0.04 0.2 0.12 0.32 0.24 l0.28 0.32 l-1 1.04 l-0.56 -0.56 c-2.28 -2.12 -5.28 -3.28 -8.44 -3.28 c-2.24 0 -4.32 0.56 -6.24 1.68 c-3.88 2.24 -6.28 6.4 -6.28 10.88 c0 2.24 0.56 4.32 1.68 6.24 c2.24 3.88 6.36 6.28 10.84 6.28 c2.72 0 4.8 -0.76 8.2 -2.96 l0 -9.2 l-8.76 0 l0 -1.44 l10.16 0 l0 11.4 l-0.28 0.24 c-3.56 2.44 -6.12 3.4 -9.32 3.4 z M99.81 37.28 c-2 0 -3.88 -0.52 -5.6 -1.52 c-3.52 -2.04 -5.68 -5.72 -5.68 -9.72 c0 -2.04 0.52 -3.96 1.52 -5.72 c2.04 -3.48 5.64 -5.56 9.76 -5.56 c2.28 0 4.48 0.72 6.6 2.12 l1.04 0.8 l0.52 0.52 l-2.88 3.12 l-1.28 -1 c-1.16 -0.84 -2.52 -1.28 -4 -1.28 c-1.2 0 -2.36 0.32 -3.44 0.92 c-2.2 1.28 -3.52 3.52 -3.52 6.08 c0 1.2 0.32 2.36 0.96 3.44 c1.24 2.2 3.48 3.52 6 3.52 c1 0 1.92 -0.2 2.76 -0.64 l0 -0.64 l-3.32 0 l0 -4.08 l7.48 0 l0 7.12 l-0.92 0.72 c-1.8 1.24 -3.64 1.8 -6 1.8 z M99.81 16.2 c-1.76 0 -3.4 0.44 -4.92 1.32 c-3.04 1.76 -4.92 5 -4.92 8.52 c0 1.76 0.44 3.4 1.32 4.88 c1.76 3.04 5 4.92 8.52 4.92 c1.96 0 3.72 -0.52 5.2 -1.52 l0.28 -0.24 l0 -5 l-4.6 0 l0 1.2 l3.32 0 l0 3 l-0.4 0.2 c-1.32 0.64 -2.56 0.96 -3.8 0.96 c-1.44 0 -2.84 -0.4 -4.16 -1.16 c-2.68 -1.56 -4.24 -4.16 -4.24 -7.24 c0 -1.52 0.36 -2.92 1.12 -4.24 c1.48 -2.56 4.2 -4.16 7.28 -4.16 c1.72 0 3.36 0.52 4.84 1.52 l0.28 0.2 l0.96 -1.04 l-0.32 -0.24 c-1.72 -1.24 -3.64 -1.88 -5.76 -1.88 z M121.60000000000001 12.079999999999998 l1.44 0 l0 26.48 l15.32 0 l0 -4 l-11.28 0 l0 -3.84 l1.44 0 l0 2.4 l11.28 0 l0 6.88 l-18.2 0 l0 -27.92 z M124.32000000000001 12.079999999999998 l15.28 0 l0 6.84 l-9.6 0 l0 -1.44 l8.16 0 l0 -3.96 l-12.4 0 l0 11.56 l9.32 0 l0 1.44 l-10.76 0 l0 -14.44 z M124.32000000000001 27.8 l12.16 0 l0 -4 l-9.4 0 l0 -9.08 l9.68 0 l0 1.44 l-8.24 0 l0 6.2 l9.4 0 l0 6.88 l-12.16 0 l0 6.64 l11.2 0 l0 1.44 l-12.64 0 l0 -9.52 z M170.79 28.6 l-16.36 -16.6 l-2 0 l19.8 20.12 l0 -17.32 l-1.44 0 l0 13.8 z M169.47 25.4 l0 -12 l4.08 0 l0 25.16 l-0.68 0 l-0.16 -0.16 l-18.32 -18.56 l0 20.16 l4.2 0 l0 -11.8 l-1.48 -1.52 l0 11.88 l-1.28 0 l0 -15.2 l16.6 16.64 l2.56 0 l0 -28 l-6.96 0 l0 11.84 z M153.07 40 l0 -23.4 l19.16 19.44 l0 -2.12 l-20.56 -20.76 l0 26.84 l1.4 0 z M189.29999999999998 12 l4.2 0 l0 25.32 l-1.44 0 l0 -23.88 l-1.32 0 l0 25.12 l4.04 0 l0 -26.56 l1.44 0 l0 28 l-6.92 0 l0 -28 z M220.73 19.68 l-1.52 2.36 l-5.64 -8.6 l1.52 0 l4.12 6.4 l0.84 -1.36 l-4.16 -6.48 l-4.96 0 l8.28 12.68 l8.08 -12.68 l-1.72 0 l-4.8 7.6 z M211.76999999999998 38.56 l-1.36 0 l8.08 -12.76 l-8.8 -13.76 l-1.72 0 l8.8 13.8 l-9 14.2 l4.76 -0.04 l16.96 -26.52 l1.44 0 l-9.48 14.88 l5.92 9.28 l1.72 0 l-5.96 -9.28 l10.44 -16.32 l-4.84 0 z M224.60999999999999 28.48 l6.52 10.08 l-4.56 0 l-5.92 -9 l-6.72 10.44 l1.72 0 l5.04 -7.8 l5.08 7.8 l8 0 l-8.16 -12.68 l-0.12 -0.2 z" fill="#137DC5"></path></g></svg>